# xmcd
#
# Track frame offsets:
#	150
#	22847
#	34335
#	55365
#	74014
#	91405
#	105466
#	126373
#	138810
#	167404
#	185098
#	196946
#	207738
#	221492
#	236432
#
# Disc length: 3339 seconds
#
# Revision: 0
# Processed by: cddbd v1.5.1PL0 Copyright (c) Steve Scherf et al.
# Submitted via: audiograbber 1.83.01
#
DISCID=db0d090f
DTITLE=Baitaca - Rodeio Campeiro
DYEAR=2001
DGENRE=Nativista
TTITLE0=Tenho orgulho em ser campeiro
TTITLE1=Da templa antiga
TTITLE2=Reformando a mulher véia
TTITLE3=Égua baldosa
TTITLE4=Nego bom não se mistura
TTITLE5=Peão sem sorte
TTITLE6=O valor que uma mãe tem
TTITLE7=Destrinchando o bagualismo
TTITLE8=Campeiro que canta triste
TTITLE9=Um gaiteiro a moda antiga
TTITLE10=Rodeio campeiro
TTITLE11=Soltito ao vento
TTITLE12=Desta vez foi mal de festa
TTITLE13=No meio dos quatro ventos
TTITLE14=Mais louco do que certo
EXTD=
EXTT0=
EXTT1=
EXTT2=
EXTT3=
EXTT4=
EXTT5=
EXTT6=
EXTT7=
EXTT8=
EXTT9=
EXTT10=
EXTT11=
EXTT12=
EXTT13=
EXTT14=
PLAYORDER=
